# xmcd
#
# Track frame offsets:
#	150
#	22378
#	46450
#	69266
#	93462
#	118899
#	142045
#	162791
#	213651
#
# Disc length: 3184 seconds
#
# Revision: 0
# Processed by: cddbd v1.5.2PL0 Copyright (c) Steve Scherf et al.
# Submitted via: EasyCDDAExtractor 9.0.0.1
#
DISCID=880c6e09
DTITLE=UFO - Catch Light Club Seoul 06-08-06
DYEAR=2006
DGENRE=Hard Rock
TTITLE0=Mother Mary
TTITLE1=When Daylight Goes To Town
TTITLE2=Let It Roll
TTITLE3=I'm A Loser
TTITLE4=This Kids
TTITLE5=Baby Blue
TTITLE6=Only You Can Rock Me
TTITLE7=Love To Love
TTITLE8=Too Hot To Handle
EXTD=
EXTT0=
EXTT1=
EXTT2=
EXTT3=
EXTT4=
EXTT5=
EXTT6=
EXTT7=
EXTT8=
PLAYORDER=
